<svg xmlns="http://www.w3.org/2000/svg" viewBox="0 0 512 512">
  <rect width="512" height="512" rx="96" fill="#0f766e"/>
  <circle cx="256" cy="256" r="166" fill="#ffffff"/>
  <path d="M256 118l78 56-30 91h-96l-30-91z" fill="#172033"/>
  <path d="M148 238l60 27 12 92-72 42-54-70z" fill="#172033"/>
  <path d="M364 238l54 91-54 70-72-42 12-92z" fill="#172033"/>
  <path d="M205 402h102l48 44a166 166 0 0 1-198 0z" fill="#172033"/>
  <path d="M123 166a166 166 0 0 1 71-55l-16 63-68 48z" fill="#172033"/>
  <path d="M389 166l13 56-68-48-16-63a166 166 0 0 1 71 55z" fill="#172033"/>
</svg>
